<?xml version="1.0" encoding="utf-8"?>
<!-- Generator: Adobe Illustrator 25.0.1, SVG Export Plug-In . SVG Version: 6.00 Build 0)  -->
<svg version="1.0"
	 id="Layer_1" xmlns:cc="http://creativecommons.org/ns#" xmlns:dc="http://purl.org/dc/elements/1.1/" xmlns:rdf="http://www.w3.org/1999/02/22-rdf-syntax-ns#"
	 xmlns="http://www.w3.org/2000/svg" xmlns:xlink="http://www.w3.org/1999/xlink" x="0px" y="0px" width="256px" height="256px"
	 viewBox="0 0 256 256" enable-background="new 0 0 256 256" xml:space="preserve">
<g>
	<path fill="#1B1A1B" d="M239.1,194.2c45.7-76-9.7-199.4-110.9-186.8c-91.5,11.3-93,107.6-12.3,130.5c69.8,19.8,14.4,64.1,16,93.6
		C133.5,260.9,192.6,271.6,239.1,194.2L239.1,194.2z"/>
	<path fill="#1B1A1B" d="M81.3,242.2c21.1-5.5,33.7-27.2,28.2-48.4c-5.5-21.2-27.1-33.8-48.1-28.3s-33.7,27.2-28.2,48.4
		C38.7,235,60.3,247.7,81.3,242.2z"/>
	<path fill="#1B1A1B" d="M23.8,94.2c-14.2,1.4-24.6,14-23.2,28.3c1.4,14.3,14,24.7,28.2,23.3c14.2-1.4,24.6-14.1,23.2-28.3
		C50.6,103.3,38,92.8,23.8,94.2z"/>
</g>
<path fill="#BFBFBF" d="M239.3,190.8c45.4-75.9-9.6-199-110.2-186.5c-90.9,11.3-92.4,107.4-12.3,130.3c69.3,19.8,14.3,64,15.9,93.4
	C134.4,257.4,193.1,268.1,239.3,190.8L239.3,190.8z"/>
<path d="M144.4,239.6c-2.8-4.5,1.5-9.5,5.8-9.1c6.9,0.6,21.9-0.1,33.7-6.8c29.6-16.8,75.1-97.9,52.2-149
	c-10.2-22.9-15.2-29.4-25.8-40.6c-2.2-2.3-0.9-2.2,0.5-1.4c5.7,3,15.7,14.7,26,33.6c17.4,32,16.5,70.1,10,94
	c-4.5,16.6-20,54.2-42.7,70.5C181.5,247.2,154.8,256.5,144.4,239.6L144.4,239.6z"/>
<path d="M123.8,134.4c-15.5-4.6-35.5-11.1-47-26.2C68.3,97,64,84.8,62.9,77.9c-0.4-2.5-0.7-4.5,0-5.1c0.3-0.3,6.4,13.4,15.4,24.9
	c9,11.5,21.6,18.2,32.1,20.6c9.3,2.2,28.7,6.9,35.2,12.5c6.7,5.8,7.3,18.2,5,19.6C148.3,151.8,143.7,140.3,123.8,134.4L123.8,134.4z
	"/>
<path fill="#FFFFFF" d="M155.8,241.8c-0.3,3.6,3.8,4.3,9.3,3.4c7-1.1,13-1.9,21.1-5.9c11-5.5,22.1-13.4,30.2-24.1
	c24.2-31.8,32.8-69.4,31.5-74.8c-0.4,4.5-6.3,27.9-19.7,49c-17.2,27.1-29.7,41.6-58.4,48.6C161.7,240.1,156.2,237.1,155.8,241.8
	L155.8,241.8z"/>
<path fill="#FFFFFF" d="M92,118.2c3.3,2.8,10,6.5,23.2,10.9c15.9,5.3,23.7,9.8,27,12c3.4,2.3,5.6,7.5,5.8,2.9
	c0.2-4.6-2.6-8.6-8.9-10.6c-4.3-1.4-11.4-4.8-18.3-6.2c-4.4-0.9-11.6-2.6-17.7-4.5C99.7,121.6,96.3,119.8,92,118.2L92,118.2z"/>
<path fill="#BFBFBF" d="M81.3,239.1c21-5.5,33.6-27.2,28.1-48.4c-5.5-21.2-27-33.8-48-28.3c-21,5.5-33.6,27.2-28.1,48.4
	C38.9,231.9,60.3,244.6,81.3,239.1z"/>
<path d="M48,229.6c30.6,28.6,76.6-10.7,56.3-45.3c-2.3-3.9-5.2-6.9-4.3-3.9c6.5,19.9,0.5,35.7-10.7,43.8c-10.9,8-26,9.3-38,3
	C47.8,225.4,46.3,228.1,48,229.6L48,229.6z"/>
<path fill="#FFFFFF" d="M72,235.5c3.9-0.8,26.5-6.7,31.8-25.5c1.7-5.9,2-4.7,1.5-1.5c-2.4,16.2-17.6,28.1-30.5,28.6
	C72.2,237.3,68.8,236.2,72,235.5L72,235.5z"/>
<path fill="#BFBFBF" d="M24,91.1c-14.1,1.4-24.5,14-23.1,28.3c1.4,14.3,13.9,24.7,28.1,23.3c14.1-1.4,24.5-14.1,23.1-28.3
	C50.7,100.2,38.1,89.8,24,91.1L24,91.1z"/>
<path d="M12.3,136.7c0.2,1.8,2.6,4.2,6.6,5.3c3.4,0.9,12,3.3,23.1-3.8s12.4-26,7.3-31.6c-1.6-2.8-3.6-4.9-2-0.4
	c4.1,11.4-3.9,22-10.7,26.9c-6.9,4.9-15.5,2.6-19.1,1.5C14,133.5,12.2,134.8,12.3,136.7L12.3,136.7z"/>
<path fill="#FFFFFF" d="M26.7,139.2c1-0.9,6.2-0.5,10.8-3.1c4.7-2.5,10.2-8.1,11.2-15.9c0.6-4.6,0.8-3.5,1-0.9
	C49,132.3,37,139.6,30.2,140.5C28.4,140.8,25.1,140.6,26.7,139.2L26.7,139.2z"/>
<path fill="#999999" d="M230.7,141.5C250,85.5,209.7,0.9,128.1,11c-73.7,9.2-74.9,87.4-9.9,106c73.6,11.2,29.3,67.2,23,95.5
	C135.5,237.9,200.6,242,230.7,141.5L230.7,141.5z"/>
<path fill="#F3F3F3" d="M180.3,185.3c-19.9-2.5-48.6,42.9-21.6,37.6c27-5.3-27,5.3,0,0c13-1.9,23.8-6.6,33.4-17.7
	c12.6-14.5,31.4-45.7,36.8-65.9c4.6-17,2.3-43.4-2.4-18.6C221.7,146.1,200.2,187.7,180.3,185.3L180.3,185.3z"/>
<path fill="#999999" d="M46.4,221.6c4.6,0.1,7.4,0.7,12.1,4c9.2,3.9,26.2,1.4,34.1-9c7.8-10.4,8.1-24.8,5.1-33.4
	c-7.3-21.2-38.4-20.8-52.2-3.2C30.4,199.6,41.8,221.5,46.4,221.6L46.4,221.6z"/>
<path fill="#999999" d="M5.2,123.3c0.9,2.9,3.3,7.2,8.2,7.9c6.6,0.9,8,4,15.8,2.4c7.8-1.6,13.8-8,16.1-15.2c2.7-9.9-1.4-15-7.5-19.6
	c-6.1-4.6-19.6-4.1-27.6,3.3C4.5,107.4,2.9,116.1,5.2,123.3L5.2,123.3z"/>
<path fill="#F3F3F3" d="M31.2,129.8c6-1.6,14-9.9,10-16.2c-4.9-7.8-18.4-1.1-18.9,7.5C21.9,129.8,24.8,131.5,31.2,129.8L31.2,129.8z
	"/>
<path fill="#F3F3F3" d="M76.4,223.1c5.1-1.4,20.9-7.8,17.9-30.9c-1.5-11.7-7.8,14.5-19.5,18.4C57.1,216.6,59,227.7,76.4,223.1
	L76.4,223.1z"/>
</svg>
